<mxfile host="app.diagrams.net" modified="2021-06-10T11:13:44.681Z" agent="5.0 (Windows NT 10.0; Win64; x64) AppleWebKit/537.36 (KHTML, like Gecko) Chrome/91.0.4472.77 Safari/537.36" etag="AvHuZH4t_NLOvMONUc4C" version="14.7.7" type="github">
  <diagram id="BkngK3X7I9KQVH7am66S" name="Page-1">
    <mxGraphModel dx="716" dy="337" grid="1" gridSize="10" guides="1" tooltips="1" connect="1" arrows="1" fold="1" page="1" pageScale="1" pageWidth="850" pageHeight="1100" math="0" shadow="0">
      <root>
        <mxCell id="0" />
        <mxCell id="1" parent="0" />
        <mxCell id="1ZX6Y4KyPC9WGoFBthJF-1" value="" style="rounded=0;whiteSpace=wrap;html=1;" parent="1" vertex="1">
          <mxGeometry x="540" y="200" width="400" height="260" as="geometry" />
        </mxCell>
        <mxCell id="1ZX6Y4KyPC9WGoFBthJF-2" style="edgeStyle=orthogonalEdgeStyle;rounded=0;orthogonalLoop=1;jettySize=auto;html=1;exitX=1;exitY=0.25;exitDx=0;exitDy=0;entryX=0;entryY=0.5;entryDx=0;entryDy=0;strokeColor=#66FFFF;" parent="1" source="1ZX6Y4KyPC9WGoFBthJF-4" target="1ZX6Y4KyPC9WGoFBthJF-20" edge="1">
          <mxGeometry relative="1" as="geometry">
            <Array as="points">
              <mxPoint x="525" y="271" />
            </Array>
          </mxGeometry>
        </mxCell>
        <mxCell id="1ZX6Y4KyPC9WGoFBthJF-3" value="P&lt;sup&gt;G&lt;/sup&gt;&lt;sub&gt;B&lt;/sub&gt;" style="edgeLabel;html=1;align=center;verticalAlign=middle;resizable=0;points=[];" parent="1ZX6Y4KyPC9WGoFBthJF-2" vertex="1" connectable="0">
          <mxGeometry x="-0.013" y="-1" relative="1" as="geometry">
            <mxPoint as="offset" />
          </mxGeometry>
        </mxCell>
        <mxCell id="1ZX6Y4KyPC9WGoFBthJF-4" value="GRID" style="rounded=0;whiteSpace=wrap;html=1;fontSize=12;" parent="1" vertex="1">
          <mxGeometry x="460" y="248.5" width="40" height="91.5" as="geometry" />
        </mxCell>
        <mxCell id="1ZX6Y4KyPC9WGoFBthJF-5" style="edgeStyle=orthogonalEdgeStyle;rounded=0;orthogonalLoop=1;jettySize=auto;html=1;exitX=1;exitY=0.5;exitDx=0;exitDy=0;entryX=0;entryY=0.75;entryDx=0;entryDy=0;strokeColor=#97D077;" parent="1" source="1ZX6Y4KyPC9WGoFBthJF-7" target="1ZX6Y4KyPC9WGoFBthJF-8" edge="1">
          <mxGeometry relative="1" as="geometry">
            <Array as="points">
              <mxPoint x="710" y="290" />
              <mxPoint x="855" y="289" />
            </Array>
          </mxGeometry>
        </mxCell>
        <mxCell id="1ZX6Y4KyPC9WGoFBthJF-6" value="P&lt;sup&gt;ES&lt;/sup&gt;&lt;sub&gt;EL&lt;/sub&gt;" style="edgeLabel;html=1;align=center;verticalAlign=middle;resizable=0;points=[];" parent="1ZX6Y4KyPC9WGoFBthJF-5" vertex="1" connectable="0">
          <mxGeometry x="-0.0099" y="1" relative="1" as="geometry">
            <mxPoint as="offset" />
          </mxGeometry>
        </mxCell>
        <mxCell id="1ZX6Y4KyPC9WGoFBthJF-7" value="Electrical Storage&lt;br&gt;b(t)" style="rounded=0;whiteSpace=wrap;html=1;" parent="1" vertex="1">
          <mxGeometry x="641.6899999999999" y="265" width="58.38" height="50" as="geometry" />
        </mxCell>
        <mxCell id="1ZX6Y4KyPC9WGoFBthJF-8" value="Electrical &lt;br&gt;Load&lt;br&gt;P&lt;sub&gt;EL&lt;/sub&gt;" style="shape=trapezoid;perimeter=trapezoidPerimeter;whiteSpace=wrap;html=1;fixedSize=1;fontSize=15;" parent="1" vertex="1">
          <mxGeometry x="770" y="246" width="150" height="60" as="geometry" />
        </mxCell>
        <mxCell id="1ZX6Y4KyPC9WGoFBthJF-9" style="edgeStyle=orthogonalEdgeStyle;rounded=0;orthogonalLoop=1;jettySize=auto;html=1;exitX=0;exitY=0.5;exitDx=0;exitDy=0;entryX=0.5;entryY=1;entryDx=0;entryDy=0;strokeColor=#FF9933;" parent="1" source="1ZX6Y4KyPC9WGoFBthJF-15" target="1ZX6Y4KyPC9WGoFBthJF-23" edge="1">
          <mxGeometry relative="1" as="geometry" />
        </mxCell>
        <mxCell id="1ZX6Y4KyPC9WGoFBthJF-10" value="P&lt;sup&gt;PV&lt;/sup&gt;&lt;sub&gt;G&lt;/sub&gt;" style="edgeLabel;html=1;align=center;verticalAlign=middle;resizable=0;points=[];" parent="1ZX6Y4KyPC9WGoFBthJF-9" vertex="1" connectable="0">
          <mxGeometry x="-0.1439" y="-1" relative="1" as="geometry">
            <mxPoint as="offset" />
          </mxGeometry>
        </mxCell>
        <mxCell id="1ZX6Y4KyPC9WGoFBthJF-11" style="edgeStyle=orthogonalEdgeStyle;rounded=0;orthogonalLoop=1;jettySize=auto;html=1;exitX=0.5;exitY=0;exitDx=0;exitDy=0;strokeColor=#FF9933;" parent="1" source="1ZX6Y4KyPC9WGoFBthJF-15" target="1ZX6Y4KyPC9WGoFBthJF-7" edge="1">
          <mxGeometry relative="1" as="geometry">
            <Array as="points">
              <mxPoint x="671" y="330" />
              <mxPoint x="671" y="330" />
            </Array>
          </mxGeometry>
        </mxCell>
        <mxCell id="1ZX6Y4KyPC9WGoFBthJF-12" value="P&lt;sup&gt;PV&lt;/sup&gt;&lt;sub&gt;ES&lt;/sub&gt;" style="edgeLabel;html=1;align=center;verticalAlign=middle;resizable=0;points=[];" parent="1ZX6Y4KyPC9WGoFBthJF-11" vertex="1" connectable="0">
          <mxGeometry x="-0.1742" relative="1" as="geometry">
            <mxPoint as="offset" />
          </mxGeometry>
        </mxCell>
        <mxCell id="1ZX6Y4KyPC9WGoFBthJF-13" style="edgeStyle=orthogonalEdgeStyle;rounded=0;orthogonalLoop=1;jettySize=auto;html=1;exitX=1;exitY=0.5;exitDx=0;exitDy=0;strokeColor=#FF9933;entryX=0.5;entryY=1;entryDx=0;entryDy=0;" parent="1" source="1ZX6Y4KyPC9WGoFBthJF-15" target="1ZX6Y4KyPC9WGoFBthJF-8" edge="1">
          <mxGeometry relative="1" as="geometry">
            <mxPoint x="752" y="293" as="targetPoint" />
            <Array as="points">
              <mxPoint x="845" y="385" />
            </Array>
          </mxGeometry>
        </mxCell>
        <mxCell id="1ZX6Y4KyPC9WGoFBthJF-14" value="P&lt;sup&gt;PV&lt;/sup&gt;&lt;sub&gt;EL&lt;/sub&gt;" style="edgeLabel;html=1;align=center;verticalAlign=middle;resizable=0;points=[];" parent="1ZX6Y4KyPC9WGoFBthJF-13" vertex="1" connectable="0">
          <mxGeometry x="-0.3171" y="-1" relative="1" as="geometry">
            <mxPoint y="-13.14" as="offset" />
          </mxGeometry>
        </mxCell>
        <mxCell id="1ZX6Y4KyPC9WGoFBthJF-15" value="P&lt;sub&gt;PV&lt;/sub&gt;" style="shape=process;whiteSpace=wrap;html=1;backgroundOutline=1;fontSize=15;" parent="1" vertex="1">
          <mxGeometry x="621.3800000000001" y="360" width="99" height="50.25" as="geometry" />
        </mxCell>
        <mxCell id="1ZX6Y4KyPC9WGoFBthJF-16" style="edgeStyle=orthogonalEdgeStyle;rounded=0;orthogonalLoop=1;jettySize=auto;html=1;exitX=0.5;exitY=0;exitDx=0;exitDy=0;entryX=0;entryY=0.25;entryDx=0;entryDy=0;strokeColor=#3333FF;" parent="1" source="1ZX6Y4KyPC9WGoFBthJF-20" target="1ZX6Y4KyPC9WGoFBthJF-8" edge="1">
          <mxGeometry relative="1" as="geometry">
            <Array as="points">
              <mxPoint x="568" y="250" />
              <mxPoint x="760" y="250" />
              <mxPoint x="760" y="264" />
              <mxPoint x="784" y="264" />
            </Array>
          </mxGeometry>
        </mxCell>
        <mxCell id="1ZX6Y4KyPC9WGoFBthJF-17" value="P&lt;sup&gt;G&lt;/sup&gt;&lt;sub&gt;EL&lt;/sub&gt;" style="edgeLabel;html=1;align=center;verticalAlign=middle;resizable=0;points=[];" parent="1ZX6Y4KyPC9WGoFBthJF-16" vertex="1" connectable="0">
          <mxGeometry x="0.0544" y="-1" relative="1" as="geometry">
            <mxPoint as="offset" />
          </mxGeometry>
        </mxCell>
        <mxCell id="1ZX6Y4KyPC9WGoFBthJF-18" style="edgeStyle=orthogonalEdgeStyle;rounded=0;orthogonalLoop=1;jettySize=auto;html=1;exitX=1;exitY=0.5;exitDx=0;exitDy=0;entryX=0.01;entryY=0.309;entryDx=0;entryDy=0;strokeColor=#3333FF;entryPerimeter=0;" parent="1" source="1ZX6Y4KyPC9WGoFBthJF-20" target="1ZX6Y4KyPC9WGoFBthJF-7" edge="1">
          <mxGeometry relative="1" as="geometry">
            <mxPoint x="555.5" y="329" as="targetPoint" />
          </mxGeometry>
        </mxCell>
        <mxCell id="1ZX6Y4KyPC9WGoFBthJF-19" value="P&lt;sup&gt;G&lt;/sup&gt;&lt;sub&gt;ES&lt;/sub&gt;" style="edgeLabel;html=1;align=center;verticalAlign=middle;resizable=0;points=[];" parent="1ZX6Y4KyPC9WGoFBthJF-18" vertex="1" connectable="0">
          <mxGeometry x="-0.3244" relative="1" as="geometry">
            <mxPoint as="offset" />
          </mxGeometry>
        </mxCell>
        <mxCell id="1ZX6Y4KyPC9WGoFBthJF-20" value="" style="ellipse;whiteSpace=wrap;html=1;aspect=fixed;" parent="1" vertex="1">
          <mxGeometry x="555.5" y="258.5" width="25" height="25" as="geometry" />
        </mxCell>
        <mxCell id="1ZX6Y4KyPC9WGoFBthJF-21" style="edgeStyle=orthogonalEdgeStyle;rounded=0;orthogonalLoop=1;jettySize=auto;html=1;exitX=0;exitY=0.5;exitDx=0;exitDy=0;entryX=1;entryY=0.75;entryDx=0;entryDy=0;strokeColor=#660000;" parent="1" source="1ZX6Y4KyPC9WGoFBthJF-23" target="1ZX6Y4KyPC9WGoFBthJF-4" edge="1">
          <mxGeometry relative="1" as="geometry">
            <Array as="points">
              <mxPoint x="525" y="314" />
              <mxPoint x="525" y="317" />
              <mxPoint x="500" y="317" />
            </Array>
          </mxGeometry>
        </mxCell>
        <mxCell id="1ZX6Y4KyPC9WGoFBthJF-22" value="P&lt;sup&gt;G&lt;/sup&gt;&lt;sub&gt;S&lt;/sub&gt;" style="edgeLabel;html=1;align=center;verticalAlign=middle;resizable=0;points=[];" parent="1ZX6Y4KyPC9WGoFBthJF-21" vertex="1" connectable="0">
          <mxGeometry x="-0.393" y="-1" relative="1" as="geometry">
            <mxPoint x="-11.67" y="-2" as="offset" />
          </mxGeometry>
        </mxCell>
        <mxCell id="1ZX6Y4KyPC9WGoFBthJF-23" value="" style="ellipse;whiteSpace=wrap;html=1;aspect=fixed;" parent="1" vertex="1">
          <mxGeometry x="555.5" y="301" width="25" height="25" as="geometry" />
        </mxCell>
        <mxCell id="1ZX6Y4KyPC9WGoFBthJF-24" style="edgeStyle=orthogonalEdgeStyle;rounded=0;orthogonalLoop=1;jettySize=auto;html=1;exitX=0;exitY=0.75;exitDx=0;exitDy=0;entryX=1;entryY=0.5;entryDx=0;entryDy=0;strokeColor=#97D077;" parent="1" source="1ZX6Y4KyPC9WGoFBthJF-7" target="1ZX6Y4KyPC9WGoFBthJF-23" edge="1">
          <mxGeometry relative="1" as="geometry">
            <mxPoint x="512.5" y="329" as="sourcePoint" />
          </mxGeometry>
        </mxCell>
        <mxCell id="1ZX6Y4KyPC9WGoFBthJF-25" value="P&lt;sup&gt;ES&lt;/sup&gt;&lt;sub&gt;G&lt;/sub&gt;" style="edgeLabel;html=1;align=center;verticalAlign=middle;resizable=0;points=[];" parent="1ZX6Y4KyPC9WGoFBthJF-24" vertex="1" connectable="0">
          <mxGeometry x="-0.2909" y="-1" relative="1" as="geometry">
            <mxPoint as="offset" />
          </mxGeometry>
        </mxCell>
        <mxCell id="1ZX6Y4KyPC9WGoFBthJF-26" value="PROSUMER" style="text;html=1;align=center;verticalAlign=middle;resizable=0;points=[];autosize=1;fontStyle=1" parent="1" vertex="1">
          <mxGeometry x="540" y="440" width="90" height="20" as="geometry" />
        </mxCell>
      </root>
    </mxGraphModel>
  </diagram>
</mxfile>
